<?xml version="1.0" encoding="UTF-8" standalone="no"?>
<!-- Created with Inkscape (http://www.inkscape.org/) -->

<svg
   width="100mm"
   height="100mm"
   viewBox="0 0 100 100"
   version="1.1"
   id="svg3098"
   inkscape:version="1.2.1 (9c6d41e4, 2022-07-14)"
   sodipodi:docname="Ceres-icon-white.svg"
   xmlns:inkscape="http://www.inkscape.org/namespaces/inkscape"
   xmlns:sodipodi="http://sodipodi.sourceforge.net/DTD/sodipodi-0.dtd"
   xmlns="http://www.w3.org/2000/svg"
   xmlns:svg="http://www.w3.org/2000/svg">
  <sodipodi:namedview
     id="namedview3100"
     pagecolor="#0000ff"
     bordercolor="#000000"
     borderopacity="0.25"
     inkscape:showpageshadow="2"
     inkscape:pageopacity="0"
     inkscape:pagecheckerboard="0"
     inkscape:deskcolor="#d1d1d1"
     inkscape:document-units="mm"
     showgrid="false"
     inkscape:zoom="2.2807083"
     inkscape:cx="188.97638"
     inkscape:cy="188.97638"
     inkscape:window-width="1920"
     inkscape:window-height="1082"
     inkscape:window-x="0"
     inkscape:window-y="25"
     inkscape:window-maximized="1"
     inkscape:current-layer="layer1" />
  <defs
     id="defs3095" />
  <g
     inkscape:label="Layer 1"
     inkscape:groupmode="layer"
     id="layer1">
    <path
       style="fill:#ffffff;fill-opacity:1;fill-rule:nonzero;stroke:none;stroke-width:0.33681"
       d="M 49.998652,6.979421e-7 C 30.668845,-0.00372958 15,14.945868 15,33.389848 c 0.01069,0.230065 0.02034,0.460092 0.03769,0.693971 h 10.792964 c -0.01345,-0.233879 -0.02138,-0.463906 -0.02828,-0.693971 0,-12.748342 10.834722,-23.081945 24.196275,-23.081945 13.361556,0 24.192214,10.333603 24.192214,23.081945 0,12.748351 -10.830658,23.081983 -24.192214,23.081983 -1.903235,-0.01017 -3.796989,-0.230028 -5.640953,-0.664391 v 8.109072 c -0.0039,0.05913 0,0.115666 0,0.174791 V 76.158506 H 31.971313 c -3.755236,0 -6.799291,2.410906 -6.799291,5.388497 0,2.973767 3.044055,5.388515 6.799291,5.388515 h 12.386386 v 6.550216 c 0.07135,3.530231 2.689828,6.408886 5.643641,6.514266 3.120844,0 5.649026,-2.904356 5.651714,-6.487287 v -6.577195 h 12.358111 c 3.699999,-0.07199 6.721156,-2.568948 6.827568,-5.388515 0,-2.97374 -3.044058,-5.388497 -6.799291,-5.388497 H 55.653054 V 66.301679 C 72.559756,63.663347 84.979787,49.733962 85,33.389848 85,14.949747 69.332499,6.979421e-7 50.005376,6.979421e-7 h -0.0068"
       id="path821" />
  </g>
</svg>
