<?xml version="1.0" encoding="UTF-8" standalone="no"?>
<!-- Created with Inkscape (http://www.inkscape.org/) -->

<svg
   width="100mm"
   height="100mm"
   viewBox="0 0 100 100"
   version="1.1"
   id="svg2927"
   inkscape:version="1.2.1 (9c6d41e4, 2022-07-14)"
   sodipodi:docname="Uranus-icon-white.svg"
   xmlns:inkscape="http://www.inkscape.org/namespaces/inkscape"
   xmlns:sodipodi="http://sodipodi.sourceforge.net/DTD/sodipodi-0.dtd"
   xmlns="http://www.w3.org/2000/svg"
   xmlns:svg="http://www.w3.org/2000/svg">
  <sodipodi:namedview
     id="namedview2929"
     pagecolor="#0000ff"
     bordercolor="#000000"
     borderopacity="0.25"
     inkscape:showpageshadow="2"
     inkscape:pageopacity="0"
     inkscape:pagecheckerboard="0"
     inkscape:deskcolor="#d1d1d1"
     inkscape:document-units="mm"
     showgrid="false"
     inkscape:zoom="2.2807083"
     inkscape:cx="188.97638"
     inkscape:cy="188.97638"
     inkscape:window-width="1920"
     inkscape:window-height="1082"
     inkscape:window-x="0"
     inkscape:window-y="25"
     inkscape:window-maximized="1"
     inkscape:current-layer="layer1" />
  <defs
     id="defs2924" />
  <g
     inkscape:label="Layer 1"
     inkscape:groupmode="layer"
     id="layer1">
    <path
       style="fill:#ffffff;fill-opacity:1;fill-rule:nonzero;stroke:none;stroke-width:0.335062"
       d="m 49.994577,73.977023 c 4.572307,0 8.279983,3.500424 8.279983,7.817444 0,4.320832 -3.707676,7.821257 -8.279983,7.821257 -4.572308,0 -8.279985,-3.500425 -8.279985,-7.821257 0,-4.31702 3.707677,-7.817444 8.279985,-7.817444 z M 94.492075,0.00509577 C 92.591765,0.05471733 90.372284,0.90055351 87.748762,3.1048445 82.226974,8.2830007 70.077704,18.402679 68.068317,34.62267 c -0.01349,0 -0.02688,0 -0.04036,0 H 55.641646 c 0,-4.727847 0,-8.929139 0,-19.521985 0,-3.544932 -2.527902,-6.4208503 -5.64703,-6.4208503 -3.119139,0 -5.64704,2.8759183 -5.64704,6.4208503 V 34.618867 H 31.965274 c -0.01076,0 -0.02289,0 -0.03365,0 C 29.91954,18.406491 17.772961,8.285539 12.251175,3.108687 9.6276569,0.90690296 7.4081689,0.06106955 5.507866,0.00890508 4.0291062,-0.03052634 2.742934,0.40958161 1.610294,1.0671734 -0.75733629,2.8186556 -0.87450848,5.2061411 3.7206951,9.838585 11.997983,18.738492 20.812637,25.032122 20.928457,39.085961 v 1.726047 c -0.11582,14.051328 -8.930474,20.344959 -17.2077619,29.244838 -4.59520358,4.632471 -4.47803139,7.019927 -2.1104011,8.771413 1.13264,0.657624 2.4188122,1.097702 3.8962243,1.05827 1.9003019,-0.05215 4.1211386,-0.898006 6.7446567,-3.09975 5.519093,-5.17685 17.662976,-15.291451 19.677754,-31.500016 0.01214,0 0.02424,0 0.03637,0 H 44.347562 V 64.390288 C 36.24805,66.7345 30.718182,73.793868 30.716838,81.794467 30.716838,91.850558 39.348327,100 49.99459,100 60.640868,100 69.272352,91.850558 69.272352,81.794467 69.262552,73.801483 63.73441,66.748502 55.64163,64.406828 c 0,-9.432849 0,-14.656783 0,-19.120065 h 12.359363 c 0.02287,-0.0037 0.04584,-0.0065 0.07007,-0.0065 2.014782,16.208537 14.158667,26.323138 19.677757,31.500016 2.623523,2.204292 4.844352,3.04759 6.744652,3.09975 1.477416,0.042 2.763592,-0.400673 3.896234,-1.054458 C 100.75734,77.070321 100.87451,74.682866 96.2793,70.04912 88.002013,61.150515 79.18736,54.859386 79.071538,40.805557 V 39.079509 C 79.18736,25.025671 88.002013,18.732003 96.2793,9.8321331 100.87451,5.1983841 100.75734,2.8122019 98.389706,1.0607188 97.257064,0.40312786 95.970888,-0.03698194 94.492124,0.0024504 v 0.00323057"
       id="path769" />
  </g>
</svg>
