<?xml version="1.0" encoding="UTF-8" standalone="no"?>
<!-- Created with Inkscape (http://www.inkscape.org/) -->

<svg
   width="100mm"
   height="100mm"
   viewBox="0 0 100 100"
   version="1.1"
   id="svg2982"
   inkscape:version="1.2.1 (9c6d41e4, 2022-07-14)"
   sodipodi:docname="Neptune-icon-white.svg"
   xmlns:inkscape="http://www.inkscape.org/namespaces/inkscape"
   xmlns:sodipodi="http://sodipodi.sourceforge.net/DTD/sodipodi-0.dtd"
   xmlns="http://www.w3.org/2000/svg"
   xmlns:svg="http://www.w3.org/2000/svg">
  <sodipodi:namedview
     id="namedview2984"
     pagecolor="#0000ff"
     bordercolor="#000000"
     borderopacity="0.25"
     inkscape:showpageshadow="2"
     inkscape:pageopacity="0"
     inkscape:pagecheckerboard="0"
     inkscape:deskcolor="#d1d1d1"
     inkscape:document-units="mm"
     showgrid="false"
     inkscape:zoom="2.1204575"
     inkscape:cx="202.78643"
     inkscape:cy="203.25802"
     inkscape:window-width="1920"
     inkscape:window-height="1082"
     inkscape:window-x="0"
     inkscape:window-y="25"
     inkscape:window-maximized="1"
     inkscape:current-layer="layer1" />
  <defs
     id="defs2979" />
  <g
     inkscape:label="Layer 1"
     inkscape:groupmode="layer"
     id="layer1">
    <path
       style="fill:#ffffff;fill-opacity:1;fill-rule:nonzero;stroke:none;stroke-width:0.328479"
       d="M 49.986058,1.2086573e-4 42.445483,7.6771308 l 0.0056,0.00372 c -2.201262,2.2434167 -4.402524,4.4868052 -6.603786,6.7302312 -2.306635,2.352317 -2.453132,5.943545 -0.32511,8.016541 2.126727,2.075552 5.722248,1.850063 8.030161,-0.502253 l 1.011325,-1.030083 v 28.778595 c -2.158852,0 -4.297151,0 -8.238344,0 -5.877744,0 -9.131444,0 -15.009188,0 V 20.266198 c 0.580841,0.567586 1.173236,1.144134 1.74893,1.705323 2.359322,2.302325 5.959981,2.447103 8.040455,0.324115 2.081752,-2.121667 1.855581,-5.706508 -0.503732,-8.006276 L 19.329482,3.2991324 15.967834,0.01922695 8.428545,7.6936708 l 0.00466,0.00651 C 6.2319431,9.9435975 4.0306811,12.186986 1.830706,14.431686 -0.47721628,16.782692 -0.62242657,20.3714 1.5055868,22.446953 3.6323226,24.523789 7.2278439,24.297017 9.5344799,21.9447 l 1.0061771,-1.026243 v 32.80546 l -0.04756,1.318357 c 0,2.968574 2.905455,5.373393 6.489413,5.373393 H 44.56446 V 76.302702 H 32.751148 c -3.585236,0 -6.4907,2.407385 -6.4907,5.373403 0,2.96729 2.905464,5.372119 6.4907,5.372119 H 44.56446 v 6.45859 c 0.07068,3.515659 2.567496,6.388135 5.388139,6.493186 2.974853,0 5.386862,-2.895534 5.388149,-6.467572 9.32e-4,-2.194717 0,-4.312554 0,-6.484204 h 11.792741 c 3.528707,-0.06917 6.409749,-2.558588 6.513836,-5.369563 0,-2.968574 -2.904178,-5.372119 -6.486849,-5.372119 H 55.342035 c 0,-1.440078 0,-2.909638 0,-4.349716 0,-3.816726 0,-7.697538 0,-11.541161 h 26.873872 c 3.530003,-0.06917 6.408472,-2.558579 6.513846,-5.369563 l 0.104086,-1.561789 v -33.13601 c 0.562825,0.550925 1.14237,1.112123 1.701391,1.659171 2.358007,2.302362 5.957391,2.44714 8.040448,0.325435 2.081742,-2.12295 1.854292,-5.707781 -0.503751,-8.006276 L 86.100572,2.6534862 83.439247,0.05517985 75.8987,7.7335007 l 0.0056,0.00372 c -2.201252,2.243426 -4.402514,4.4868143 -6.603776,6.7302313 -2.306636,2.351006 -2.453133,5.942234 -0.326397,8.015267 2.128013,2.076836 5.723535,1.850064 8.031457,-0.50097 l 1.052439,-1.072367 v 28.760651 c -5.859756,0 -8.369426,0 -14.144361,0 -4.996206,0 -6.272242,0 -8.569888,0 0,-7.064611 0,-14.129195 0,-21.191258 0,-2.86608 0,-5.401573 0,-8.233086 0.578268,0.565029 1.169385,1.141577 1.743792,1.702738 2.359322,2.299796 5.958704,2.443292 8.039169,0.321587 2.081751,-2.119111 1.85559,-5.703942 -0.503732,-8.006276 L 52.652922,2.5905989 49.986477,0"
       id="path771" />
  </g>
</svg>
